<svg id="Capa_1" enable-background="new 0 0 512 512" height="512" viewBox="0 0 512 512" width="512" xmlns="http://www.w3.org/2000/svg"><g><path d="m421 179c0 63.2-64.87 181-64.87 181h-200.26s-64.87-117.8-64.87-181c0-107.7 73.87-169 165-169s165 61.3 165 169z" fill="#a0c8ff"/><path d="m363.5 179c0 63.19-47.144 181-47.144 181h-120.712s-47.144-117.81-47.144-181c0-107.7 48.131-169 107.5-169s107.5 61.3 107.5 169z" fill="#ffda8f"/><path d="m316 502h-120l-15-60h150z" fill="#dd9366"/><path d="m301 179c0 63.19-15.939 145.37-26.694 181h-36.612c-10.755-35.63-26.694-117.81-26.694-181 0-107.7 20.151-169 45-169s45 61.3 45 169z" fill="#a0e4a5"/><path d="m351.31 37.04c-24.09 24.95-57.89 40.46-95.31 40.46s-71.22-15.51-95.31-40.46c26.92-17.74 59.81-27.04 95.31-27.04s68.39 9.3 95.31 27.04z" fill="#fff"/><g><path d="m429.13 149.54c-.65-4.97-4.9-8.71-9.9-8.71-.44 0-.87.03-1.31.09-2.65.34-5 1.7-6.63 3.82-1.63 2.11-2.34 4.74-1.99 7.39 1.13 8.64 1.7 17.68 1.7 26.87.03 13.23-3.32 31.22-9.7 52.03-9.25 30.32-23.42 62.46-33.68 84.08-5.83 12.28-16.49 33.05-17.47 34.89h-19.225c12.495-33.303 42.575-118.885 42.575-171 0-49.124-9.781-91.313-28.359-122.79 2.468-1.989 4.873-4.076 7.224-6.241 9.507 7.092 18.085 15.367 25.564 24.781 1.91 2.4 4.77 3.78 7.84 3.78 2.28 0 4.43-.75 6.21-2.16 4.32-3.43 5.05-9.74 1.62-14.05-7.95-10.03-17.15-19.08-27.33-26.9-1.865-1.434-3.771-2.824-5.71-4.175-1.161-.809-7.011-4.641-8.482-5.539-5.95-3.634-12.166-6.916-18.608-9.806-11.66-5.22-24.14-9.22-37.1-11.88-12.949-2.67-26.469-4.02-40.189-4.02h-.27c-23.93 0-46.71 4.01-67.7 11.92-21.28 8.01-40.06 19.79-55.83 34.99-16.28 15.67-28.96 34.69-37.69 56.54-9.11 22.79-13.72 48.21-13.69 75.55.03 15.62 3.48 34.55 10.57 57.86 16.8 54.942 48.133 114.271 55.027 127.01l24.765 80.809 14.937 59.747c1.113 4.451 5.112 7.574 9.701 7.574h120c4.589 0 8.588-3.123 9.701-7.574l14.937-59.747 24.749-80.758c3.14-5.789 17.68-32.946 32.353-66.742 9.56-22.02 17.19-42.32 22.69-60.32 7.09-23.31 10.54-42.24 10.57-57.86 0-10.049-.63-19.959-1.87-29.459zm-105.524 282.46h-135.212l-19-62h79.117c3.229 8.867 10.451 22.959 25.671 32.826 11.345 7.355 24.913 11.04 40.55 11.04 4.726 0 9.645-.344 14.744-1.018zm-115.275-352.618c-4.861 27.831-7.331 61.272-7.331 99.618 0 57.41 12.965 130.339 23.528 171h-22.045c-9.572-25.013-43.983-118.595-43.983-171 0-44.878 8.555-83.107 24.823-111.345 7.947 4.731 16.315 8.654 25.008 11.727zm75.963 5.335c4.396 26.189 6.706 58.503 6.706 94.283 0 58.235-13.772 132.958-24.221 171h-21.558c-10.449-38.042-24.221-112.765-24.221-171 0-35.78 2.311-68.094 6.706-94.283 9.206 1.838 18.67 2.783 28.294 2.783s19.088-.945 28.294-2.783zm51.747 306.706c-21.192 4.499-38.252 2.757-50.746-5.229-7.272-4.647-11.943-10.826-14.883-16.195h72.195zm17.459-212.423c0 52.373-34.412 145.979-43.983 171h-22.044c10.562-40.661 23.527-113.59 23.527-171 0-38.346-2.47-71.787-7.331-99.617 8.694-3.074 17.062-6.996 25.008-11.728 16.268 28.238 24.823 66.467 24.823 111.345zm-97.5-159c29.224.023 56.001 6.528 78.812 18.798-22.017 18.592-49.562 28.702-78.812 28.702-29.216 0-56.73-10.088-78.735-28.639 22.958-12.286 49.913-18.848 78.735-18.861zm-146.38 207.4c-5.66-19.21-8.64-35.94-8.62-48.4.05-48.43 15.7-89.12 45.27-117.69 4.207-4.055 8.681-7.828 13.389-11.319 2.343 2.158 4.74 4.237 7.2 6.219-18.578 31.477-28.359 73.666-28.359 122.79 0 52.115 30.079 137.697 42.575 171h-19.225c-5.36-10.11-19.2-36.91-32.24-67.78-8.5-20.13-15.23-38.58-19.99-54.82zm198.572 264.6h-104.384l-10-40h124.385z"/><circle cx="408.113" cy="107.37" r="10"/></g></g></svg>